<svg xmlns="http://www.w3.org/2000/svg" width="26" height="26" viewBox="0 0 26 26"><g transform="translate(0 -1026.362)"><circle cx="13" cy="1039.362" r="13" fill="#ffa40b" fill-rule="evenodd"/><path fill="#ff7712" style="line-height:normal;text-indent:0;text-align:start;text-decoration-line:none;text-decoration-style:solid;text-decoration-color:#000;text-transform:none;block-progression:tb;isolation:auto;mix-blend-mode:normal" d="M 16.167969 25.59375 A 12.999996 12.999996 0 0 0 16.476562 25.525391 A 12.999996 12.999996 0 0 0 17.710938 25.117188 A 12.999996 12.999996 0 0 0 18.896484 24.585938 A 12.999996 12.999996 0 0 0 20.023438 23.939453 A 12.999996 12.999996 0 0 0 21.080078 23.183594 A 12.999996 12.999996 0 0 0 22.056641 22.326172 A 12.999996 12.999996 0 0 0 22.943359 21.375 A 12.999996 12.999996 0 0 0 23.728516 20.339844 A 12.999996 12.999996 0 0 0 24.408203 19.232422 A 12.999996 12.999996 0 0 0 24.974609 18.0625 A 12.999996 12.999996 0 0 0 25.419922 16.841797 A 12.999996 12.999996 0 0 0 25.740234 15.582031 A 12.999996 12.999996 0 0 0 25.90625 14.484375 L 18.046875 6.6230469 C 18.022108 6.5982794 17.993988 6.5769977 17.96875 6.5527344 C 17.929419 6.5149016 17.888103 6.4799532 17.847656 6.4433594 C 17.615643 6.2335166 17.368245 6.0421497 17.103516 5.875 C 17.080488 5.8604562 17.056451 5.8481916 17.033203 5.8339844 C 16.757965 5.6658041 16.467994 5.5194427 16.166016 5.4003906 C 16.147154 5.3929547 16.128326 5.3861431 16.109375 5.3789062 C 15.801345 5.2612516 15.483634 5.1685205 15.15625 5.1054688 C 15.049969 5.084996 14.941762 5.071096 14.833984 5.0566406 C 14.762297 5.047027 14.691392 5.0342478 14.619141 5.0273438 C 14.616529 5.0270941 14.61394 5.0256366 14.611328 5.0253906 C 14.434091 5.0086927 14.255968 5 14.076172 5 C 12.699467 5 11.138359 5.2428812 9.8652344 5.9882812 C 8.59211 6.7335813 7.6328125 8.0507186 7.6328125 9.9492188 C 7.6328125 10.962919 7.5447535 11.266309 7.3730469 11.599609 C 7.2013399 11.932909 6.8671515 12.361525 6.4628906 13.328125 A 0.50005006 0.50005006 0 0 0 6.9238281 14.019531 L 7.9394531 15.035156 C 7.9388827 15.27225 7.9375 15.512181 7.9375 16.044922 C 7.9375 16.514122 7.875461 16.983988 8.2011719 17.429688 C 8.2329669 17.472687 8.268252 17.514934 8.3066406 17.552734 L 11.074219 20.320312 L 11.074219 20.5 A 0.50005006 0.50005006 0 0 0 11.574219 21 L 16.167969 25.59375 z " color="#000" font-family="sans-serif" font-weight="400" transform="translate(0 1026.362)"/><path fill="#fff" d="m 9.5,0.00195313 c -1.3767054,0 -2.9378131,0.24288124 -4.2109375,0.98828125 C 4.0159381,1.7355344 3.0566406,3.0526719 3.0566406,4.9511719 c 0,1.0137 -0.088059,1.3170906 -0.2597656,1.6503906 -0.171707,0.3333 -0.5058953,0.7619156 -0.9101562,1.7285156 a 0.50005006,0.50005006 0 0 0 0.4609374,0.6914063 l 1.0175782,0 c -7.132e-4,0.1237 4.219e-4,0.1752781 -0.00195,0.3925781 a 0.50005006,0.50005006 0 0 0 0,0.00977 c 0,1.2230995 -0.00195,0.7667465 -0.00195,1.6230465 0,0.4692 -0.062039,0.939066 0.2636719,1.384766 0.1628555,0.2228 0.4184087,0.37919 0.703125,0.46289 0.2847163,0.084 0.6107746,0.113281 1.0234375,0.113281 0.2862915,2e-4 0.7471392,0 1.1464844,0 l 0,2.494141 a 0.50005006,0.50005006 0 0 0 0.5,0.5 l 5.5410148,0 a 0.50005006,0.50005006 0 0 0 0.5,-0.5 l 0,-3.498047 c 0,-1.6569 0.429955,-2.43379 0.914063,-3.27539 0.462527,-0.8041 0.968913,-1.7225812 1.015625,-3.1757812 A 0.50005006,0.50005006 0 0 0 15,5.3769531 c -3e-6,-3.2019 -2.623264,-5.37499997 -5.5,-5.37499997 z m 0,0.99609375 0,0.003906 c 2.384395,0 4.499997,1.7117 4.5,4.375 0,1.3549 -0.417986,1.9891625 -0.914062,2.8515625 -0.496079,0.8625 -1.046875,1.9298376 -1.046876,3.7734376 l 0,2.998047 -4.5410151,0 0,-2.494141 a 0.50005006,0.50005006 0 0 0 -0.5,-0.5 l -1.6464844,0 c -0.3581071,0 -0.6031801,-0.03126 -0.7421875,-0.07226 -0.1390074,-0.041 -0.1610099,-0.07075 -0.1777344,-0.09375 -0.033449,-0.046 -0.070312,-0.307522 -0.070312,-0.794922 0,-0.8524 0.00195,-0.410088 0.00195,-1.6171878 l 0,-0.011719 c 0.00444,-0.4055 0.00636,-0.628425 0.00391,-0.765625 -0.00123,-0.069 9.87e-5,-0.1101062 -0.013672,-0.1914062 -0.00689,-0.041 -0.00715,-0.096978 -0.076172,-0.2050782 C 4.2083236,8.1455108 3.9804885,8.0175827 3.847657,8.0175827 l -0.671875,0 c 0.1731979,-0.3082 0.372292,-0.6921906 0.5117188,-0.9628906 0.2397481,-0.4654 0.3691406,-1.0243219 0.3691406,-2.1074219 0,-1.5812 0.6975357,-2.4882562 1.7382813,-3.0976562 C 6.8356675,1.2403094 8.2461455,0.99804688 9.5,0.99804688 Z M 9.4238281,2 c -1.6509319,0 -3,1.3491 -3,3 0,1.651 1.3490681,3 3,3 1.6509319,0 2.9999999,-1.349 2.9999999,-3 0,-1.6509 -1.349068,-3 -2.9999999,-3 z m -0.5,1.0683594 0,1.4316406 -1.4296875,0 C 7.6739464,3.7957536 8.219762,3.2485922 8.9238281,3.0683594 Z m 1,0 C 10.627894,3.2485922 11.17371,3.7957536 11.353516,4.5 l -1.4296879,0 0,-1.4316406 z M 7.4941406,5.5 l 1.4296875,0 0,1.4296875 C 8.2203716,6.7496107 7.6744316,6.2033706 7.4941406,5.5 Z m 2.4296875,0 1.4296879,0 C 11.173225,6.2033706 10.627285,6.7496107 9.9238281,6.9296875 l 0,-1.4296875 z" color="#000" font-family="sans-serif" font-weight="400" overflow="visible" transform="translate(4.576 1031.36)" style="line-height:normal;text-indent:0;text-align:start;text-decoration-line:none;text-decoration-style:solid;text-decoration-color:#000;text-transform:none;block-progression:tb;isolation:auto;mix-blend-mode:normal"/></g></svg>