<svg xmlns="http://www.w3.org/2000/svg" data-name="Layer 1" viewBox="0 0 512 512"><g data-name="&lt;Group&gt;"><path fill="#00acea" d="M254.285 147.89h1.423a35.04 35.04 0 0 0 35-35V99.981a35.04 35.04 0 0 0-35-35h-1.423a35.04 35.04 0 0 0-35 35v12.908A35.04 35.04 0 0 0 254.285 147.89zm-21-47.909a21.024 21.024 0 0 1 21-21h1.423a21.024 21.024 0 0 1 21 21v12.908a21.024 21.024 0 0 1-21 21h-1.423a21.024 21.024 0 0 1-21-21zM289.617 159.155h-7.249a7 7 0 0 0-5.9 3.238l-7.934 12.451-9.557-5.347a7 7 0 0 0-6.992.09l-8.384 4.978-6.993-11.946a7 7 0 0 0-6.041-3.464H222.39a36.834 36.834 0 0 0-36.684 40.174v76.323a7.01 7.01 0 0 0 1.354 4.139l22.647 30.891 5.047 113.04a24.087 24.087 0 0 0 24.154 23.3h34.339a24.071 24.071 0 0 0 24.15-23.237l5.051-113.112 22.5-30.911a7 7 0 0 0 1.341-4.12v-76.31a36.833 36.833 0 0 0-36.675-40.174zm22.712 39.131a6.959 6.959 0 0 0-.036.707v74.366l-22.4 30.772a7.007 7.007 0 0 0-1.334 3.808l-5.146 115.276a10.135 10.135 0 0 1-10.162 9.8H238.91a10.148 10.148 0 0 1-10.165-9.862L223.6 307.939a7 7 0 0 0-1.348-3.826l-22.545-30.752V198.993a6.925 6.925 0 0 0-.036-.706 22.832 22.832 0 0 1 22.719-25.131h4.161l8.525 14.563a7 7 0 0 0 5.941 3.461 6.889 6.889 0 0 0 3.74-1.02l10.9-6.474 11.807 6.6a7 7 0 0 0 9.321-2.349l9.422-14.788h3.408a22.831 22.831 0 0 1 22.712 25.132z"/><path fill="#00efd1" d="M420.836 147.89h1.424a35.04 35.04 0 0 0 35-35V99.981a35.04 35.04 0 0 0-35-35h-1.424a35.04 35.04 0 0 0-35 35v12.908A35.041 35.041 0 0 0 420.836 147.89zm-21-47.909a21.024 21.024 0 0 1 21-21h1.424a21.024 21.024 0 0 1 21 21v12.908a21.024 21.024 0 0 1-21 21h-1.424a21.024 21.024 0 0 1-21-21zM456.169 159.155H448.92a7 7 0 0 0-5.9 3.238l-7.934 12.451-9.557-5.347a7 7 0 0 0-6.992.09l-8.384 4.978-6.993-11.946a7 7 0 0 0-6.041-3.464h-8.174a36.834 36.834 0 0 0-36.684 40.173v76.324a7.01 7.01 0 0 0 1.354 4.139l22.647 30.891 5.047 113.04a24.086 24.086 0 0 0 24.153 23.3H439.8a24.071 24.071 0 0 0 24.15-23.237L469 310.67l22.5-30.911a7 7 0 0 0 1.341-4.12v-76.31a36.833 36.833 0 0 0-36.676-40.174zm22.712 39.131a6.959 6.959 0 0 0-.036.707v74.366l-22.4 30.772a7.007 7.007 0 0 0-1.334 3.808l-5.146 115.276a10.135 10.135 0 0 1-10.162 9.8H405.462a10.148 10.148 0 0 1-10.165-9.862l-5.144-115.217a6.994 6.994 0 0 0-1.348-3.826l-22.546-30.752V198.993a6.925 6.925 0 0 0-.036-.706 22.832 22.832 0 0 1 22.719-25.131h4.16l8.525 14.563a7 7 0 0 0 9.678 2.443l10.9-6.476 11.807 6.6a7 7 0 0 0 9.321-2.349l9.422-14.788h3.408a22.832 22.832 0 0 1 22.713 25.132zM87.733 147.89h1.423a35.04 35.04 0 0 0 35-35V99.981a35.04 35.04 0 0 0-35-35H87.733a35.04 35.04 0 0 0-35 35v12.908A35.041 35.041 0 0 0 87.733 147.89zm-21-47.909a21.024 21.024 0 0 1 21-21h1.423a21.024 21.024 0 0 1 21 21v12.908a21.024 21.024 0 0 1-21 21H87.733a21.024 21.024 0 0 1-21-21zM123.066 159.155h-7.25a7 7 0 0 0-5.9 3.238l-7.933 12.451L92.423 169.5a7 7 0 0 0-6.992.09l-8.384 4.978-6.993-11.946a7 7 0 0 0-6.041-3.464H55.839a36.834 36.834 0 0 0-36.684 40.174v76.323a7.01 7.01 0 0 0 1.354 4.139l22.647 30.891L48.2 423.722a24.087 24.087 0 0 0 24.154 23.3H106.7a24.071 24.071 0 0 0 24.151-23.237L135.9 310.67l22.5-30.911a7 7 0 0 0 1.341-4.12v-76.31a36.833 36.833 0 0 0-36.674-40.174zm22.711 39.131a6.959 6.959 0 0 0-.036.707v74.366l-22.4 30.772a7.007 7.007 0 0 0-1.334 3.808l-5.146 115.276a10.135 10.135 0 0 1-10.163 9.8H72.357a10.148 10.148 0 0 1-10.165-9.862L57.048 307.939a7 7 0 0 0-1.348-3.826L33.155 273.361V198.993a6.925 6.925 0 0 0-.036-.706 22.832 22.832 0 0 1 22.719-25.131H60l8.525 14.563a7 7 0 0 0 5.941 3.461 6.87 6.87 0 0 0 3.74-1.02l10.9-6.474 11.807 6.6a7 7 0 0 0 9.321-2.349l9.421-14.788h3.409a22.829 22.829 0 0 1 22.712 25.132z"/></g></svg>