<svg xmlns="http://www.w3.org/2000/svg" xmlns:xlink="http://www.w3.org/1999/xlink" width="32" height="32" viewBox="0 0 32 32"><defs><linearGradient id="a"><stop offset="0" stop-color="#000092"/><stop offset="1" stop-color="#ff00f3"/></linearGradient><linearGradient id="b" x2="29" y1="1036.856" y2="1036.856" gradientUnits="userSpaceOnUse" xlink:href="#a"/></defs><path style="line-height:normal;text-indent:0;text-align:start;text-decoration-line:none;text-decoration-style:solid;text-decoration-color:#000;text-transform:none;block-progression:tb;isolation:auto;mix-blend-mode:normal" fill="url(#b)" fill-rule="evenodd" d="m 0.5,1026.3622 a 0.50005,0.50005 0 0 0 -0.5,0.5 l 0,16 a 0.50005,0.50005 0 0 0 0.5,0.5 l 4.5800781,0 c -0.022786,0.1607 -0.050786,0.3214 -0.050781,0.4883 5.6e-6,1.9271 1.5729248,3.5 3.5,3.5 1.9270751,0 3.4999941,-1.5729 3.5000001,-3.5 5e-6,-0.1669 -0.028,-0.3276 -0.05078,-0.4883 l 2.714843,0 5.806641,0 a 0.50005,0.50005 0 0 0 0.09961,-0.012 l 0.980469,0 c -0.02387,0.1644 -0.05078,0.3292 -0.05078,0.5 0,1.9271 1.572926,3.5 3.5,3.5 1.927074,0 3.5,-1.5729 3.5,-3.5 0,-0.1708 -0.02692,-0.3356 -0.05078,-0.5 l 3.021484,0 a 0.50005,0.50005 0 0 0 0.5,-0.5 l 0,-2.9629 a 0.50005,0.50005 0 0 0 0.002,-0.035 l 0,-2.0058 A 0.50005,0.50005 0 0 0 32,1037.7958 l 0,-2.9473 a 0.50005,0.50005 0 0 0 -0.123047,-0.33 0.50005,0.50005 0 0 0 -0.0625,-0.078 l -5.181641,-5.9199 a 0.50005,0.50005 0 0 0 -0.376953,-0.1699 l -5.255859,0 0,-1.4883 a 0.50005,0.50005 0 0 0 -0.5,-0.5 l -20,0 z m 0.5,1 19,0 0,10.9883 -19,0 0,-10.9883 z m 2.0214844,0.9883 a 0.50005,0.50005 0 0 0 -0.4921875,0.5058 l 0,7.9942 a 0.50005,0.50005 0 1 0 1,0 l 0,-7.9942 a 0.50005,0.50005 0 0 0 -0.5078125,-0.5058 z m 3,0 a 0.50005,0.50005 0 0 0 -0.4921875,0.5058 l 0,7.9942 a 0.50005,0.50005 0 1 0 1,0 l 0,-7.9942 a 0.50005,0.50005 0 0 0 -0.5078125,-0.5058 z m 3,0 a 0.50005,0.50005 0 0 0 -0.4921875,0.5058 l 0,7.9942 a 0.50005,0.50005 0 1 0 1,0 l 0,-7.9942 a 0.50005,0.50005 0 0 0 -0.5078125,-0.5058 z m 2.9999996,0 a 0.50005,0.50005 0 0 0 -0.492187,0.5058 l 0,7.9942 a 0.50005,0.50005 0 1 0 1,0 l 0,-7.9942 a 0.50005,0.50005 0 0 0 -0.507813,-0.5058 z m 3,0 a 0.50005,0.50005 0 0 0 -0.492187,0.5058 l 0,7.9942 a 0.50005,0.50005 0 1 0 1,0 l 0,-7.9942 a 0.50005,0.50005 0 0 0 -0.507813,-0.5058 z m 3,0 a 0.50005,0.50005 0 0 0 -0.492187,0.5058 l 0,7.9942 a 0.50005,0.50005 0 1 0 1,0 l 0,-7.9942 a 0.50005,0.50005 0 0 0 -0.507813,-0.5058 z m 2.978516,1 5.029297,0 4.376953,4.998 -9.40625,0 0,-4.998 z m 0.0293,5.998 9.970703,0 0,1.9981 -1.472656,0 a 0.50005,0.50005 0 0 0 -0.5,0.5 l 0,2.0058 a 0.50005,0.50005 0 0 0 0.5,0.5 l 1.472656,0 0,1.9981 -2.822266,0 c -0.564647,-1.1779 -1.759468,-2 -3.148437,-2 -1.38897,0 -2.583791,0.8221 -3.148438,2 l -0.851562,0 0,-0.2793 0,-6.7227 z m 1.441406,1.502 a 0.50064426,0.50064426 0 1 0 0.05078,1 l 1.015625,0 a 0.50005,0.50005 0 1 0 0,-1 l -1.015625,0 a 0.50005,0.50005 0 0 0 -0.05078,0 z m 7.556641,1.4961 0.972656,0 0,1.0058 -0.972656,0 0,-1.0058 z M 1,1039.3505 l 19,0 0,3.0117 -5.306641,0 -3.007812,0 c -0.562034,-1.1848 -1.7622517,-2.0117 -3.1562501,-2.0117 -1.3939985,0 -2.5942167,0.8269 -3.15625,2.0117 l -4.3730469,0 0,-1.0117 1.5214844,0 a 0.50005,0.50005 0 1 0 0,-1 l -1.5214844,0 0,-1 z m 7.5292969,2 c 1.3866691,0 2.5000421,1.1133 2.5000001,2.5 -4e-6,1.3866 -1.1133641,2.5 -2.5000001,2.5 -1.3866362,0 -2.499996,-1.1134 -2.5,-2.5 -4.22e-5,-1.3867 1.1133307,-2.5 2.5,-2.5 z m 16.5000001,0 c 1.386634,0 2.5,1.1134 2.5,2.5 0,1.3866 -1.113366,2.5 -2.5,2.5 -1.386634,0 -2.5,-1.1134 -2.5,-2.5 0,-1.3866 1.113366,-2.5 2.5,-2.5 z m -16.5000001,1 c -0.8225048,0 -1.5,0.6775 -1.5,1.5 0,0.8225 0.6774952,1.5 1.5,1.5 0.8225048,0 1.5000001,-0.6775 1.5000001,-1.5 0,-0.8225 -0.6774953,-1.5 -1.5000001,-1.5 z m 16.5000001,0 c -0.822505,0 -1.5,0.6775 -1.5,1.5 0,0.8225 0.677495,1.5 1.5,1.5 0.822505,0 1.5,-0.6775 1.5,-1.5 0,-0.8225 -0.677495,-1.5 -1.5,-1.5 z m -16.5000001,1 c 0.2820647,0 0.5,0.2179 0.5,0.5 0,0.2821 -0.2179353,0.5 -0.5,0.5 -0.2820647,0 -0.5,-0.2179 -0.5,-0.5 0,-0.2821 0.2179353,-0.5 0.5,-0.5 z m 16.5000001,0 c 0.282065,0 0.5,0.2179 0.5,0.5 0,0.2821 -0.217935,0.5 -0.5,0.5 -0.282065,0 -0.5,-0.2179 -0.5,-0.5 0,-0.2821 0.217935,-0.5 0.5,-0.5 z" color="#000" font-family="sans-serif" font-weight="400" overflow="visible" transform="translate(0 -1020.362)"/></svg>