<svg xmlns="http://www.w3.org/2000/svg" xmlns:xlink="http://www.w3.org/1999/xlink" viewBox="0 0 64 64"><defs><linearGradient id="a" x1="13" x2="13" y1="62.805" y2="1.259" gradientUnits="userSpaceOnUse"><stop offset="0" stop-color="#e93e3a"/><stop offset=".35" stop-color="#ed683c"/><stop offset=".7" stop-color="#f3903f"/><stop offset="1" stop-color="#fdc70c"/></linearGradient><linearGradient id="b" x1="17" x2="17" y1="62.805" y2="1.259" xlink:href="#a"/><linearGradient id="c" x1="21" x2="21" y1="62.805" y2="1.259" xlink:href="#a"/><linearGradient id="d" x1="46" x2="46" y1="62.805" y2="1.259" xlink:href="#a"/><linearGradient id="e" x1="52" x2="52" y1="62.805" y2="1.259" xlink:href="#a"/><linearGradient id="f" x1="32" x2="32" y1="62.805" y2="1.259" xlink:href="#a"/></defs><rect width="2" height="2" x="12" y="5" fill="url(#a)"/><rect width="2" height="2" x="16" y="5" fill="url(#b)"/><rect width="2" height="2" x="20" y="5" fill="url(#c)"/><rect width="2" height="2" x="45" y="40" fill="url(#d)"/><rect width="2" height="2" x="51" y="40" fill="url(#e)"/><path fill="url(#f)" d="M57.85,52.51,53,50.35V48.92A8.06,8.06,0,0,0,56.74,44H57a3,3,0,0,0,0-6v-.18a2.983,2.983,0,0,0-.05-5.65,6.934,6.934,0,0,0-2-4.11A6.756,6.756,0,0,0,52,26.31V26a2.006,2.006,0,0,0-2-2H48a2.006,2.006,0,0,0-2,2v.3a6.918,6.918,0,0,0-4,3.09V27a1,1,0,0,0-1-1H39V24a1,1,0,0,0-1-1H31.41L29,20.59V18h3a1,1,0,0,0,1-1V13a1,1,0,0,0-1-1H24a1,1,0,0,0-1,1v4a1,1,0,0,0,1,1h3v2.59L24.59,23H18a1,1,0,0,0-1,1v2H15a1,1,0,0,0-1,1v4a1,1,0,0,0,1,1h2v3a1,1,0,0,0,1,1h6v1a1,1,0,0,0,1,1h6a1,1,0,0,0,1-1V36h6a1,1,0,0,0,1-1V32h2a.235.235,0,0,0,.08-.02c-.01.06-.02.13-.03.19A2.983,2.983,0,0,0,41,37.82V38a3,3,0,0,0,0,6h.26A8.06,8.06,0,0,0,45,48.92v1.43l-4.85,2.16a6.95,6.95,0,0,0-3.31,3.11L36.13,50H42V48H7a3.009,3.009,0,0,1-3-3V42H36V40H11a1,1,0,0,1-1-1V10H46V22h2V12h1a3.009,3.009,0,0,1,3,3v8h2V15a5,5,0,0,0-5-5H48V5a3.009,3.009,0,0,0-3-3H11A3.009,3.009,0,0,0,8,5v5H7a5,5,0,0,0-5,5V45a5,5,0,0,0,5,5H19.87l-.75,6H17a2.006,2.006,0,0,0-2,2v2a2.006,2.006,0,0,0,2,2H61a1,1,0,0,0,1-1V58.9A7,7,0,0,0,57.85,52.51ZM25,16V14h6v2Zm3,6.41L29.59,24,28,25.59,26.41,24ZM16,30V28h4v2Zm8,3v1H19V32h2a1,1,0,0,0,1-1V27a1,1,0,0,0-1-1H19V25h5.59L27,27.41V32H25A1,1,0,0,0,24,33Zm6,3H26V34h4Zm7-2H32V33a1,1,0,0,0-1-1H29V27.41L31.41,25H37v1H35a1,1,0,0,0-1,1v4a1,1,0,0,0,1,1h2Zm3-4H36V28h4Zm1,12a1,1,0,0,1,0-2ZM10,5a1,1,0,0,1,1-1H45a1,1,0,0,1,1,1V8H10ZM4,15a3.009,3.009,0,0,1,3-3H8V39a3,3,0,0,0,.18,1H4ZM21.88,50H34.12l.75,6H21.13ZM36,58.9V60H17V58H36.07A6.819,6.819,0,0,0,36,58.9Zm17.53-6.13-.24.94-1.58-.53-.37-.73.68-.34ZM58,41a1,1,0,0,1-1,1V40A1,1,0,0,1,58,41ZM52,28.43a5.106,5.106,0,0,1,1.54,1.04A4.913,4.913,0,0,1,54.9,32H52ZM48,26h2v6H48Zm-2,2.43V32H43.1A4.943,4.943,0,0,1,46,28.43ZM41,35a1,1,0,0,1,1-1H56a1,1,0,0,1,0,2H42A1,1,0,0,1,41,35Zm2,7V38H55v4a6,6,0,0,1-12,0Zm2.98,10.11.68.34-.37.73-1.58.53-.24-.94ZM45.25,60H38V58.9a5,5,0,0,1,2.97-4.57l1.65-.73.41,1.64a1.017,1.017,0,0,0,.49.64A1,1,0,0,0,44,56a1.185,1.185,0,0,0,.32-.05l2.36-.79Zm2.09,0,.96-3.29a.99.99,0,0,0,1.4,0L50.66,60Zm.88-6.2.4-.8h.76l.4.8-.78.79ZM51,50.38,49.76,51H48.24L47,50.38v-.64a7.822,7.822,0,0,0,4,0ZM60,60H52.75l-1.43-4.84,2.36.79A1.185,1.185,0,0,0,54,56a1,1,0,0,0,.48-.12,1.017,1.017,0,0,0,.49-.64l.41-1.64,1.65.73A5,5,0,0,1,60,58.9Z"/></svg>